<svg width="480" height="480" viewBox="0 0 480 480" fill="none" xmlns="http://www.w3.org/2000/svg">
    <g clip-path="url(#clip0_1310_1764)">
    <path d="M381.49 0H97.78C43.7776 0 0 43.7776 0 97.78V381.49C0 435.492 43.7776 479.27 97.78 479.27H381.49C435.492 479.27 479.27 435.492 479.27 381.49V97.78C479.27 43.7776 435.492 0 381.49 0Z" fill="#E9E3E3"/>
    <path d="M350.36 312.38C339.568 326.56 325.923 338.32 310.306 346.901C294.688 355.482 277.445 360.694 259.69 362.2C252.37 362.829 245.009 362.829 237.69 362.2C214.959 360.177 193.189 352.086 174.655 338.773C156.12 325.459 141.502 307.411 132.329 286.516C123.155 265.621 119.762 242.645 122.505 219.99C125.247 197.335 134.025 175.832 147.92 157.73C191.45 101 274.06 91.4098 329.49 136.57C335.272 141.266 340.627 146.466 345.49 152.11C345.49 152.11 345.49 152.11 345.49 152.11C332.245 159.34 319.562 167.557 307.55 176.69V176.69C299.017 168.177 288.73 161.628 277.406 157.5C266.082 153.372 253.994 151.763 241.984 152.787C229.975 153.81 218.333 157.441 207.871 163.426C197.409 169.411 188.379 177.606 181.41 187.44C155.51 223.99 164.05 274.68 199.7 301.8L199.85 301.91C202.56 303.97 205.23 306.08 207.85 308.21C207.97 307.92 208.09 307.62 208.22 307.33C222.25 315.275 238.294 318.952 254.384 317.909C270.474 316.866 285.91 311.148 298.796 301.458C311.683 291.767 321.461 278.525 326.929 263.357C332.397 248.189 333.318 231.754 329.579 216.07C341.675 206.399 354.621 197.844 368.26 190.51V190.51C375.819 210.678 378.144 232.433 375.017 253.743C371.89 275.053 363.414 295.223 350.38 312.37L350.36 312.38Z" fill="#544E50"/>
    <path d="M169.59 371.37C189.356 371.37 205.38 355.346 205.38 335.58C205.38 315.814 189.356 299.79 169.59 299.79C149.824 299.79 133.8 315.814 133.8 335.58C133.8 355.346 149.824 371.37 169.59 371.37Z" fill="#F4727F"/>
    </g>
    <defs>
    <clipPath id="clip0_1310_1764">
    <rect width="479.27" height="479.27" fill="white"/>
    </clipPath>
    </defs>
    </svg>