<svg width="21" height="13" viewBox="0 0 21 13" fill="none" xmlns="http://www.w3.org/2000/svg">
    <path
        d="M10.0488 0.583008C10.8224 0.583008 11.5642 0.890299 12.1112 1.43728C12.6582 1.98426 12.9655 2.72613 12.9655 3.49967C12.9655 4.27322 12.6582 5.01509 12.1112 5.56207C11.5642 6.10905 10.8224 6.41634 10.0488 6.41634C9.27528 6.41634 8.53341 6.10905 7.98643 5.56207C7.43945 5.01509 7.13216 4.27322 7.13216 3.49967C7.13216 2.72613 7.43945 1.98426 7.98643 1.43728C8.53341 0.890299 9.27528 0.583008 10.0488 0.583008ZM4.21549 2.66634C4.68216 2.66634 5.11549 2.79134 5.49049 3.01634C5.36549 4.20801 5.71549 5.39134 6.43216 6.31634C6.01549 7.11634 5.18216 7.66634 4.21549 7.66634C3.55245 7.66634 2.91657 7.40295 2.44773 6.93411C1.97889 6.46527 1.71549 5.82938 1.71549 5.16634C1.71549 4.5033 1.97889 3.86741 2.44773 3.39857C2.91657 2.92973 3.55245 2.66634 4.21549 2.66634ZM15.8822 2.66634C16.5452 2.66634 17.1811 2.92973 17.6499 3.39857C18.1188 3.86741 18.3822 4.5033 18.3822 5.16634C18.3822 5.82938 18.1188 6.46527 17.6499 6.93411C17.1811 7.40295 16.5452 7.66634 15.8822 7.66634C14.9155 7.66634 14.0822 7.11634 13.6655 6.31634C14.3921 5.37836 14.7293 4.19651 14.6072 3.01634C14.9822 2.79134 15.4155 2.66634 15.8822 2.66634ZM4.63216 11.208C4.63216 9.48301 7.05716 8.08301 10.0488 8.08301C13.0405 8.08301 15.4655 9.48301 15.4655 11.208V12.6663H4.63216V11.208ZM0.0488281 12.6663V11.4163C0.0488281 10.258 1.62383 9.28301 3.75716 8.99967C3.26549 9.56634 2.96549 10.3497 2.96549 11.208V12.6663H0.0488281ZM20.0488 12.6663H17.1322V11.208C17.1322 10.3497 16.8322 9.56634 16.3405 8.99967C18.4738 9.28301 20.0488 10.258 20.0488 11.4163V12.6663Z"
        fill="#31BAC3" />
</svg>
    