<svg width="20" height="21" viewBox="0 0 20 21" fill="none" xmlns="http://www.w3.org/2000/svg">
    <circle cx="10" cy="10.5" r="10" fill="#F2656F" />
    <path
        d="M10.0556 15.6944L9.25 14.9722C8.31481 14.1296 7.54167 13.4028 6.93056 12.7917C6.31944 12.1806 5.83333 11.6319 5.47222 11.1456C5.11111 10.6596 4.85889 10.213 4.71556 9.80555C4.57185 9.39815 4.5 8.98148 4.5 8.55556C4.5 7.68518 4.79167 6.95833 5.375 6.375C5.95833 5.79167 6.68518 5.5 7.55556 5.5C8.03704 5.5 8.49537 5.60185 8.93056 5.80556C9.36574 6.00926 9.74074 6.2963 10.0556 6.66667C10.3704 6.2963 10.7454 6.00926 11.1806 5.80556C11.6157 5.60185 12.0741 5.5 12.5556 5.5C13.4259 5.5 14.1528 5.79167 14.7361 6.375C15.3194 6.95833 15.6111 7.68518 15.6111 8.55556C15.6111 8.98148 15.5394 9.39815 15.3961 9.80555C15.2524 10.213 15 10.6596 14.6389 11.1456C14.2778 11.6319 13.7917 12.1806 13.1806 12.7917C12.5694 13.4028 11.7963 14.1296 10.8611 14.9722L10.0556 15.6944ZM10.0556 14.1944C10.9444 13.3981 11.6759 12.7152 12.25 12.1456C12.8241 11.5763 13.2778 11.0811 13.6111 10.66C13.9444 10.2385 14.1759 9.86333 14.3056 9.53444C14.4352 9.20593 14.5 8.87963 14.5 8.55556C14.5 8 14.3148 7.53704 13.9444 7.16667C13.5741 6.7963 13.1111 6.61111 12.5556 6.61111C12.1204 6.61111 11.7176 6.7337 11.3472 6.97889C10.9769 7.22444 10.7222 7.53704 10.5833 7.91667H9.52778C9.38889 7.53704 9.13426 7.22444 8.76389 6.97889C8.39352 6.7337 7.99074 6.61111 7.55556 6.61111C7 6.61111 6.53704 6.7963 6.16667 7.16667C5.7963 7.53704 5.61111 8 5.61111 8.55556C5.61111 8.87963 5.67593 9.20593 5.80556 9.53444C5.93519 9.86333 6.16667 10.2385 6.5 10.66C6.83333 11.0811 7.28704 11.5763 7.86111 12.1456C8.43518 12.7152 9.16667 13.3981 10.0556 14.1944Z"
        fill="#FFFFFB" />
</svg>
    