<svg width="120" height="42" viewBox="0 0 120 42" fill="none" xmlns="http://www.w3.org/2000/svg">
    <g clip-path="url(#clip0_2251_4652)">
    <path d="M42.9922 16.8658C42.4945 16.7424 41.9104 16.6108 41.2379 16.4751C40.5242 16.3337 39.7979 16.2648 39.0703 16.2694C38.652 16.2744 38.2344 16.3053 37.8199 16.362C37.448 16.4035 37.0795 16.4722 36.7176 16.5676V31.5805H31.1526V12.983C32.3099 12.5883 33.488 12.2574 34.6816 11.9918C36.175 11.6662 37.7003 11.5096 39.2287 11.5249C39.5269 11.5249 39.8888 11.5455 40.3125 11.5825C40.7361 11.6195 41.1577 11.6689 41.5814 11.7306C42.005 11.7923 42.4287 11.8684 42.8523 11.9548C43.2221 12.0269 43.5843 12.1336 43.9341 12.2735L42.9922 16.8658Z" fill="#544E50"/>
    <path d="M44.3703 21.9085C44.3376 20.3454 44.6107 18.791 45.1744 17.3327C45.6544 16.117 46.3725 15.0094 47.2865 14.0751C48.1418 13.2156 49.1654 12.542 50.2932 12.0967C51.4052 11.6522 52.5918 11.4239 53.7893 11.4242C56.578 11.4242 58.7813 12.277 60.3991 13.9825C62.0169 15.6881 62.8265 18.1964 62.8279 21.5075C62.8279 21.8324 62.8155 22.1862 62.7909 22.5728C62.7662 22.9594 62.7395 23.3008 62.7148 23.6011H50.0875C50.137 24.1461 50.3068 24.6733 50.5845 25.1449C50.8622 25.6164 51.241 26.0205 51.6937 26.3281C52.6397 26.9999 53.9093 27.3358 55.5024 27.3358C56.5112 27.3373 57.5179 27.2436 58.5091 27.0561C59.3357 26.9158 60.1441 26.684 60.9194 26.3651L61.6659 30.8895C61.2804 31.071 60.8808 31.2209 60.4711 31.3378C59.9246 31.4977 59.3699 31.6282 58.8094 31.7286C58.1924 31.8417 57.5446 31.9342 56.8474 32.0103C56.1527 32.0842 55.4545 32.1213 54.7559 32.1214C52.9873 32.1214 51.4497 31.8602 50.1431 31.3378C48.916 30.8674 47.8068 30.1338 46.8937 29.1887C46.0241 28.2619 45.3727 27.1524 44.9873 25.9414C44.5669 24.6388 44.3586 23.2772 44.3703 21.9085ZM57.4438 19.78C57.4192 19.31 57.3384 18.8447 57.2032 18.3939C57.0716 17.9578 56.8557 17.5519 56.5677 17.199C56.2677 16.8388 55.8958 16.5453 55.4757 16.3373C54.9685 16.098 54.4115 15.9831 53.851 16.0021C53.2988 15.9874 52.7502 16.0955 52.2448 16.3188C51.8159 16.5157 51.4344 16.8026 51.1261 17.1599C50.8209 17.5169 50.5864 17.9287 50.4351 18.3733C50.2737 18.8282 50.1546 19.297 50.0793 19.7738L57.4438 19.78Z" fill="#544E50"/>
    <path d="M83.6257 30.9388C83.128 31.0896 82.5549 31.2329 81.9064 31.3686C81.2586 31.5064 80.582 31.6236 79.8725 31.7224C79.163 31.8211 78.4329 31.9033 77.7049 31.965C76.9768 32.0267 76.2653 32.0596 75.5948 32.0596C74.1203 32.0838 72.6534 31.8435 71.2637 31.3501C70.0558 30.9168 68.9588 30.2215 68.0514 29.3141C67.1606 28.4005 66.4786 27.3045 66.0524 26.1018C65.5743 24.7407 65.3403 23.3058 65.3614 21.8632C65.3421 20.4017 65.5439 18.9457 65.9599 17.5445C66.3107 16.3537 66.8944 15.2443 67.6771 14.2807C68.4175 13.3885 69.3582 12.6839 70.4226 12.2242C71.5987 11.7323 72.8642 11.49 74.1388 11.5126C74.8362 11.5051 75.5321 11.5803 76.2118 11.7368C76.8459 11.8948 77.4652 12.1074 78.0627 12.3722V3.49614L83.6277 2.59949L83.6257 30.9388ZM71.0396 21.6021C71.0396 23.3186 71.4255 24.7006 72.1974 25.7481C72.9693 26.7955 74.1134 27.3206 75.6298 27.3234C76.1275 27.3234 76.5861 27.3049 77.0097 27.2679C77.4334 27.2309 77.783 27.1877 78.0565 27.1383V17.0159C77.6334 16.7607 77.1735 16.572 76.693 16.4566C76.1391 16.3076 75.5679 16.2322 74.9943 16.2324C72.3564 16.2324 71.0382 18.025 71.0396 21.6103V21.6021Z" fill="#544E50"/>
    <path d="M93.7069 6.26013C93.7069 7.28018 93.3771 8.08292 92.7176 8.66836C92.0718 9.23441 91.2422 9.54648 90.3835 9.54648C89.5247 9.54648 88.6951 9.23441 88.0493 8.66836C87.3884 8.0843 87.0587 7.28156 87.0601 6.26013C87.0614 5.23871 87.3912 4.43528 88.0493 3.84985C88.6957 3.28502 89.525 2.97375 90.3835 2.97375C91.2419 2.97375 92.0712 3.28502 92.7176 3.84985C93.3785 4.43665 93.7082 5.24008 93.7069 6.26013ZM93.1845 31.5825H87.6194V11.9362H93.1845V31.5825Z" fill="#544E50"/>
    <path d="M115.031 21.7604C115.051 23.2089 114.817 24.6496 114.34 26.0175C113.914 27.2311 113.232 28.3391 112.341 29.2668C111.437 30.1893 110.34 30.9007 109.129 31.3501C107.742 31.8559 106.274 32.1026 104.798 32.0781C104.125 32.0781 103.421 32.0466 102.688 31.9836C101.954 31.9205 101.23 31.8362 100.514 31.7306C99.8053 31.6319 99.1273 31.514 98.4802 31.3769C97.8331 31.2398 97.262 31.0937 96.7671 30.9388V3.49614L102.332 2.59949V12.3846C102.958 12.1102 103.609 11.8974 104.276 11.7491C104.987 11.5961 105.713 11.521 106.441 11.5249C107.713 11.5001 108.976 11.7491 110.143 12.255C111.19 12.7233 112.112 13.4338 112.831 14.328C113.586 15.2856 114.145 16.3828 114.476 17.5568C114.863 18.9239 115.05 20.3398 115.031 21.7604ZM109.353 21.6103C109.353 18.0237 108.034 16.231 105.394 16.2324C104.821 16.2323 104.25 16.3077 103.696 16.4566C103.215 16.572 102.755 16.7607 102.332 17.0159V27.1383C102.606 27.1877 102.949 27.2309 103.379 27.2679C103.809 27.3049 104.261 27.3234 104.761 27.3234C106.279 27.3234 107.423 26.801 108.195 25.7563C108.967 24.7116 109.355 23.3296 109.357 21.6103H109.353Z" fill="#544E50"/>
    <path d="M25.3799 27.4016C24.1836 28.9755 22.6701 30.2806 20.9373 31.2326C19.2046 32.1845 17.2913 32.7619 15.3213 32.9275C14.5084 32.9975 13.691 32.9975 12.8781 32.9275C10.3641 32.7016 7.95639 31.8066 5.90524 30.3354C3.8541 28.8643 2.23433 26.8707 1.21423 24.5618C0.194129 22.253 -0.189075 19.7131 0.10443 17.206C0.397936 14.699 1.35745 12.3162 2.88326 10.3054C4.15743 8.63094 5.78926 7.26195 7.65977 6.2983C9.53027 5.33465 11.5923 4.80065 13.6954 4.73523C15.7985 4.66981 17.8897 5.07462 19.8165 5.92015C21.7433 6.76567 23.4571 8.03059 24.8329 9.62265C23.362 10.4246 21.954 11.3369 20.621 12.3517C20.3284 12.0571 20.0165 11.7823 19.6874 11.5291C18.7279 10.7892 17.6316 10.2465 16.4615 9.93206C15.2915 9.61764 14.0708 9.53778 12.8697 9.69708C11.6686 9.85637 10.511 10.2517 9.46329 10.8602C8.41564 11.4688 7.4987 12.2785 6.76528 13.2429C6.03187 14.2073 5.49646 15.3072 5.18988 16.4794C4.8833 17.6515 4.8116 18.8727 4.97893 20.0727C5.14625 21.2726 5.54929 22.4277 6.16483 23.4712C6.78038 24.5148 7.59626 25.4263 8.56552 26.1532L8.67245 26.2355C8.97271 26.4638 9.26886 26.6982 9.55883 26.9347L9.59996 26.836C11.1564 27.7172 12.9363 28.1248 14.7211 28.009C16.5059 27.8931 18.2181 27.2587 19.6476 26.1837C21.077 25.1086 22.1616 23.6397 22.7681 21.9571C23.3747 20.2745 23.4769 18.4514 23.0622 16.7116C24.405 15.638 25.8423 14.6881 27.3563 13.8735C28.1942 16.1115 28.4519 18.5252 28.1052 20.8896C27.7586 23.254 26.8189 25.4922 25.3737 27.3954L25.3799 27.4016Z" fill="#544E50"/>
    <path d="M8.71558 35.3461C10.7612 35.3461 12.4194 33.6878 12.4194 31.6422C12.4194 29.5966 10.7612 27.9384 8.71558 27.9384C6.66999 27.9384 5.01172 29.5966 5.01172 31.6422C5.01172 33.6878 6.66999 35.3461 8.71558 35.3461Z" fill="#F2656F"/>
    <path d="M108.792 33.1825C109.086 32.9974 109.614 33.1825 109.474 33.4128C106.692 38.5152 98.4287 41.9496 89.5053 41.711C81.3943 41.5054 74.2292 38.2828 71.5372 33.6905C71.3953 33.4519 71.9156 33.2792 72.2159 33.4519C74.6837 34.9655 80.5532 37.9085 89.3552 38.1059C99.3891 38.3424 106.17 34.8298 108.792 33.1825Z" fill="#F2656F"/>
    </g>
    <defs>
    <clipPath id="clip0_2251_4652">
    <rect width="120" height="41.7213" fill="white"/>
    </clipPath>
    </defs>
    </svg>
    