<svg width="51" height="50" viewBox="0 0 51 50" fill="none" xmlns="http://www.w3.org/2000/svg">
    <g clip-path="url(#clip0_2874_2181)">
        <path
            d="M25.8859 17.245C25.259 15.7575 24.9449 14.1475 24.9449 12.415C24.9449 10.6825 25.2616 9.07497 25.8949 7.59247C26.5282 6.10997 27.3949 4.85872 28.4962 3.83497C29.5975 2.81122 30.9052 2.00997 32.4193 1.42747C33.9334 0.844967 35.5539 0.556217 37.2821 0.556217C38.9483 0.544974 40.6017 0.841007 42.1552 1.42872C43.6744 2.00997 44.9821 2.81247 46.0782 3.83622C47.1744 4.85997 48.0411 6.11122 48.6795 7.59372C49.318 9.07622 49.6372 10.6825 49.6372 12.4162C49.6372 14.15 49.318 15.7575 48.6795 17.2387C48.0411 18.72 47.1731 19.9725 46.0782 20.9962C44.9834 22.02 43.6744 22.8212 42.1552 23.4037C40.6017 23.9914 38.9483 24.2875 37.2821 24.2762C35.6187 24.2879 33.9682 23.9918 32.418 23.4037C30.9039 22.8225 29.5962 22.02 28.4949 20.9962C27.3936 19.9725 26.5231 18.7237 25.8859 17.2475V17.245ZM0.400024 37.605C0.400024 35.8162 0.724383 34.1687 1.37438 32.665C2.02438 31.1612 2.91028 29.9087 4.03336 28.9075C5.15644 27.9062 6.4731 27.13 7.98079 26.5762C9.48849 26.0225 11.0975 25.7462 12.8039 25.7462C13.8031 25.7406 14.7992 25.8561 15.7693 26.09C16.7 26.3187 17.5167 26.6237 18.2218 27.0037C18.9231 27.3816 19.577 27.8376 20.1705 28.3625C20.7654 28.8875 21.2654 29.4275 21.6731 29.9812C22.0792 30.5328 22.4328 31.1194 22.7295 31.7337L16.9654 34.7187C16.5945 33.927 16.0301 33.236 15.3218 32.7062C14.5898 32.1475 13.75 31.8675 12.8026 31.8675C11.1846 31.8675 9.86797 32.4187 8.85515 33.52C7.84233 34.6212 7.33592 35.9825 7.33592 37.6037C7.33592 39.225 7.84233 40.5862 8.85515 41.6875C9.86797 42.7887 11.1846 43.34 12.8026 43.34C13.6244 43.3482 14.4367 43.167 15.1731 42.8112C15.8949 42.4587 16.4808 42.0037 16.9321 41.445H12.1436V35.4062H24.4487C24.4487 39.9012 23.35 43.3675 21.1539 45.805C18.9577 48.2425 15.9539 49.4625 12.1436 49.4625C10.6026 49.4625 9.12438 49.1825 7.709 48.6237C6.31926 48.0805 5.04703 47.2866 3.959 46.2837C2.87438 45.2825 2.01028 44.03 1.36541 42.5262C0.720537 41.0225 0.400024 39.3825 0.400024 37.605ZM25.8859 42.435C25.259 40.9475 24.9449 39.3375 24.9449 37.605C24.9449 35.8725 25.2616 34.265 25.8949 32.7825C26.5282 31.3 27.3949 30.0487 28.4962 29.025C29.5975 28.0012 30.9052 27.2 32.4193 26.6175C33.9695 26.0294 35.62 25.7333 37.2834 25.745C38.9496 25.7337 40.603 26.0298 42.1564 26.6175C43.6757 27.1987 44.9834 28.0012 46.0795 29.025C47.1757 30.0487 48.0423 31.3 48.6808 32.7825C49.3193 34.265 49.6385 35.8712 49.6385 37.605C49.6385 39.3387 49.3193 40.945 48.6808 42.4275C48.0423 43.91 47.1744 45.1612 46.0795 46.185C44.9846 47.2087 43.6757 48.01 42.1564 48.5912C40.603 49.1789 38.9496 49.475 37.2834 49.4637C35.62 49.4754 33.9695 49.1793 32.4193 48.5912C30.9052 48.01 29.5975 47.2075 28.4962 46.185C27.3949 45.1625 26.5244 43.9125 25.8872 42.4362L25.8859 42.435ZM33.4295 8.94747C32.5167 9.94622 32.0616 11.19 32.0616 12.6787C32.0616 14.1675 32.5205 15.4112 33.4372 16.41C34.3539 17.4087 35.5526 17.9087 37.0321 17.9087C38.5116 17.9087 39.7128 17.4087 40.6346 16.41C41.5564 15.4112 42.018 14.1675 42.018 12.6787C42.018 11.19 41.5564 9.94622 40.6346 8.94747C39.7128 7.94872 38.5116 7.44872 37.0321 7.44872C35.5526 7.44872 34.3513 7.94872 33.4295 8.94747ZM33.4295 34.1375C32.5167 35.1362 32.0616 36.38 32.0616 37.8687C32.0616 39.3575 32.5205 40.6012 33.4372 41.6C34.3539 42.5987 35.5526 43.0987 37.0321 43.0987C38.5116 43.0987 39.7128 42.5987 40.6346 41.6C41.5564 40.6012 42.018 39.3575 42.018 37.8687C42.018 36.38 41.5564 35.1362 40.6346 34.1375C39.7128 33.1387 38.5116 32.6387 37.0321 32.6387C35.5526 32.6387 34.3513 33.1375 33.4295 34.1375ZM9.30131 17.325H22.6628C22.7544 17.3269 22.8415 17.3642 22.9049 17.4287C22.9684 17.4931 23.003 17.5794 23.0013 17.6687V24.0825C23.003 24.1713 22.9687 24.2573 22.9058 24.3217C22.8429 24.386 22.7565 24.4236 22.6654 24.4262L1.97438 24.5375C1.92951 24.5375 1.88592 24.5287 1.8449 24.5125C1.80387 24.4962 1.76669 24.47 1.73464 24.4387C1.70259 24.4075 1.67823 24.3687 1.66028 24.3275C1.64233 24.2862 1.63464 24.2412 1.63336 24.1962V1.75372C1.63233 1.69425 1.65548 1.63681 1.69777 1.59394C1.74005 1.55108 1.79802 1.52628 1.859 1.52497H9.07567C9.13665 1.52628 9.19462 1.55108 9.2369 1.59394C9.27918 1.63681 9.30234 1.69425 9.30131 1.75372V17.3262V17.325Z"
            fill="#27A4FF" />
    </g>
    <defs>
        <clipPath id="clip0_2874_2181">
            <rect width="50" height="50" fill="white" transform="translate(0.400024)" />
        </clipPath>
    </defs>
</svg>
    
    