<svg width="20" height="21" viewBox="0 0 20 21" fill="none" xmlns="http://www.w3.org/2000/svg">
    <circle cx="10" cy="10.5" r="10" fill="#FBB500" />
    <path
        d="M9.42937 6.25623C9.60898 5.70344 10.391 5.70344 10.5706 6.25623L11.2124 8.23131C11.2927 8.47852 11.5231 8.6459 11.783 8.6459H13.8597C14.441 8.6459 14.6826 9.38967 14.2124 9.73131L12.5323 10.952C12.322 11.1048 12.234 11.3756 12.3143 11.6228L12.9561 13.5979C13.1357 14.1507 12.503 14.6103 12.0328 14.2687L10.3527 13.048C10.1424 12.8952 9.85762 12.8952 9.64733 13.048L7.96723 14.2687C7.497 14.6103 6.86431 14.1507 7.04392 13.5979L7.68566 11.6228C7.76599 11.3756 7.67799 11.1048 7.4677 10.952L5.7876 9.73131C5.31737 9.38967 5.55904 8.6459 6.14027 8.6459H8.21699C8.47693 8.6459 8.7073 8.47852 8.78762 8.23131L9.42937 6.25623Z"
        fill="#FFFFFB" />
</svg>
    