<svg width="18" height="19" viewBox="0 0 18 19" fill="none" xmlns="http://www.w3.org/2000/svg">
    <path
        d="M4.58268 15.5829L2.29102 15.0829C2.08268 15.0413 1.91602 14.9335 1.79102 14.7596C1.66602 14.5863 1.6174 14.3954 1.64518 14.1871L1.87435 11.8329L0.311849 10.0413C0.17296 9.88849 0.103516 9.70794 0.103516 9.4996C0.103516 9.29127 0.17296 9.11071 0.311849 8.95794L1.87435 7.16627L1.64518 4.8121C1.6174 4.60377 1.66602 4.41294 1.79102 4.2396C1.91602 4.06571 2.08268 3.95794 2.29102 3.91627L4.58268 3.41627L5.79102 1.3746C5.90213 1.19405 6.0549 1.07599 6.24935 1.02044C6.44379 0.96488 6.63824 0.971824 6.83268 1.04127L8.99935 1.95794L11.166 1.04127C11.3605 0.971824 11.5549 0.96488 11.7493 1.02044C11.9438 1.07599 12.0966 1.19405 12.2077 1.3746L13.416 3.41627L15.7077 3.91627C15.916 3.95794 16.0827 4.06571 16.2077 4.2396C16.3327 4.41294 16.3813 4.60377 16.3535 4.8121L16.1243 7.16627L17.6868 8.95794C17.8257 9.11071 17.8952 9.29127 17.8952 9.4996C17.8952 9.70794 17.8257 9.88849 17.6868 10.0413L16.1243 11.8329L16.3535 14.1871C16.3813 14.3954 16.3327 14.5863 16.2077 14.7596C16.0827 14.9335 15.916 15.0413 15.7077 15.0829L13.416 15.5829L12.2077 17.6246C12.0966 17.8052 11.9438 17.9232 11.7493 17.9788C11.5549 18.0343 11.3605 18.0274 11.166 17.9579L8.99935 17.0413L6.83268 17.9579C6.63824 18.0274 6.44379 18.0343 6.24935 17.9788C6.0549 17.9232 5.90213 17.8052 5.79102 17.6246L4.58268 15.5829ZM7.54102 11.8746C7.69379 12.0274 7.88824 12.1038 8.12435 12.1038C8.36046 12.1038 8.5549 12.0274 8.70768 11.8746L12.2493 8.33294C12.416 8.16627 12.4994 7.96821 12.4994 7.73877C12.4994 7.50988 12.416 7.3121 12.2493 7.14544C12.0827 6.97877 11.8849 6.89544 11.656 6.89544C11.4266 6.89544 11.2285 6.97877 11.0618 7.14544L8.12435 10.0829L6.91602 8.89544C6.74935 8.74266 6.55157 8.6696 6.32268 8.67627C6.09324 8.68349 5.90213 8.76349 5.74935 8.91627C5.59657 9.06905 5.52018 9.26349 5.52018 9.4996C5.52018 9.73571 5.59657 9.93016 5.74935 10.0829L7.54102 11.8746Z"
        fill="#31C36C" />
</svg>
    